<svg width="15" height="15" viewBox="0 0 15 15" fill="none" xmlns="http://www.w3.org/2000/svg">
<g clip-path="url(#clip0_1_11)">
<path d="M12.6567 3.18926C12.3588 2.89117 12.005 2.65472 11.6157 2.49339C11.2263 2.33206 10.809 2.24902 10.3875 2.24902C9.96608 2.24902 9.54876 2.33206 9.1594 2.49339C8.77005 2.65472 8.4163 2.89117 8.11836 3.18926L7.50003 3.80759L6.8817 3.18926C6.27987 2.58743 5.46363 2.24934 4.61253 2.24934C3.76143 2.24934 2.94518 2.58743 2.34336 3.18926C1.74154 3.79108 1.40344 4.60732 1.40344 5.45842C1.40344 6.30952 1.74154 7.12577 2.34336 7.72759L2.9617 8.34592L7.50003 12.8843L12.0384 8.34592L12.6567 7.72759C12.9548 7.42965 13.1912 7.0759 13.3526 6.68655C13.5139 6.29719 13.5969 5.87987 13.5969 5.45842C13.5969 5.03697 13.5139 4.61965 13.3526 4.2303C13.1912 3.84095 12.9548 3.4872 12.6567 3.18926Z" fill="#494949" stroke="#494949" stroke-linecap="round" stroke-linejoin="round"/>
</g>
<defs>
<clipPath id="clip0_1_11">
<rect width="14" height="14" fill="white" transform="translate(0.5 0.5)"/>
</clipPath>
</defs>
</svg>
