<svg width="16" height="16" viewBox="0 0 16 16" fill="none" xmlns="http://www.w3.org/2000/svg">
<path d="M12 5.33325C12 4.27239 11.5786 3.25497 10.8284 2.50482C10.0783 1.75468 9.06087 1.33325 8 1.33325C6.93913 1.33325 5.92172 1.75468 5.17157 2.50482C4.42143 3.25497 4 4.27239 4 5.33325C4 9.99992 2 11.3333 2 11.3333H14C14 11.3333 12 9.99992 12 5.33325Z" stroke="black" stroke-width="1.5" stroke-linecap="round" stroke-linejoin="round"/>
<path d="M9.15333 14C9.03612 14.2021 8.86789 14.3698 8.66548 14.4864C8.46307 14.6029 8.23358 14.6643 8 14.6643C7.76641 14.6643 7.53692 14.6029 7.33451 14.4864C7.1321 14.3698 6.96387 14.2021 6.84666 14" stroke="black" stroke-width="1.5" stroke-linecap="round" stroke-linejoin="round"/>
</svg>
