<svg width="14" height="12" viewBox="0 0 14 12" fill="none" xmlns="http://www.w3.org/2000/svg">
<path d="M12.1567 1.68913C11.8588 1.39105 11.505 1.15459 11.1157 0.993265C10.7263 0.831937 10.309 0.748901 9.88753 0.748901C9.46608 0.748901 9.04876 0.831937 8.6594 0.993265C8.27005 1.15459 7.9163 1.39105 7.61836 1.68913L7.00003 2.30747L6.3817 1.68913C5.77987 1.08731 4.96363 0.749213 4.11253 0.749213C3.26143 0.749213 2.44518 1.08731 1.84336 1.68913C1.24154 2.29095 0.903442 3.1072 0.903442 3.9583C0.903442 4.8094 1.24154 5.62565 1.84336 6.22747L2.4617 6.8458L7.00003 11.3841L11.5384 6.8458L12.1567 6.22747C12.4548 5.92953 12.6912 5.57577 12.8526 5.18642C13.0139 4.79707 13.0969 4.37975 13.0969 3.9583C13.0969 3.53685 13.0139 3.11953 12.8526 2.73018C12.6912 2.34082 12.4548 1.98707 12.1567 1.68913V1.68913Z" stroke="#4A4A4A" stroke-linecap="round" stroke-linejoin="round"/>
</svg>
